#define max_width 8
#define max_height 8
static unsigned char max_bits[] = {
   0xfc, 0xf8, 0xc1, 0xc3, 0xc3, 0x83, 0x1f, 0x3f };
