<?xml version="1.0" encoding="UTF-8" standalone="no"?>
<!-- Created with Inkscape (http://www.inkscape.org/) -->

<svg
   xmlns:dc="http://purl.org/dc/elements/1.1/"
   xmlns:cc="http://creativecommons.org/ns#"
   xmlns:rdf="http://www.w3.org/1999/02/22-rdf-syntax-ns#"
   xmlns:svg="http://www.w3.org/2000/svg"
   xmlns="http://www.w3.org/2000/svg"
   xmlns:sodipodi="http://sodipodi.sourceforge.net/DTD/sodipodi-0.dtd"
   xmlns:inkscape="http://www.inkscape.org/namespaces/inkscape"
   width="350"
   height="170"
   viewBox="0 0 92.604162 44.979168"
   version="1.1"
   id="svg8"
   inkscape:version="0.92.4 5da689c313, 2019-01-14"
   sodipodi:docname="assets.svg">
  <defs
     id="defs2" />
  <sodipodi:namedview
     id="base"
     pagecolor="#ebeced"
     bordercolor="#666666"
     borderopacity="1.0"
     inkscape:pageopacity="0"
     inkscape:pageshadow="2"
     inkscape:zoom="5.6568542"
     inkscape:cx="219.57374"
     inkscape:cy="134.25111"
     inkscape:document-units="px"
     inkscape:current-layer="layer1"
     showgrid="false"
     units="px"
     inkscape:window-width="1857"
     inkscape:window-height="926"
     inkscape:window-x="63"
     inkscape:window-y="27"
     inkscape:window-maximized="1"
     showguides="true">
    <inkscape:grid
       type="xygrid"
       id="grid1113" />
  </sodipodi:namedview>
  <metadata
     id="metadata5">
    <rdf:RDF>
      <cc:Work
         rdf:about="">
        <dc:format>image/svg+xml</dc:format>
        <dc:type
           rdf:resource="http://purl.org/dc/dcmitype/StillImage" />
        <dc:title />
      </cc:Work>
    </rdf:RDF>
  </metadata>
  <g
     inkscape:label="Layer 1"
     inkscape:groupmode="layer"
     id="layer1"
     transform="translate(0,-252.02082)">
    <g
       transform="matrix(0.26458333,0,0,0.26458333,-37.570837,51.370809)"
       id="titlebutton-minimize"
       inkscape:label="#g6143">
      <rect
         style="opacity:1;fill:#4a90d9;fill-opacity:0;stroke:none;stroke-width:1;stroke-miterlimit:4;stroke-dasharray:none;stroke-dashoffset:0;stroke-opacity:1"
         id="rect7130"
         width="20.000006"
         height="20.000006"
         x="144.00002"
         y="760.36218"
         ry="1.6668508" />
      <rect
         y="771.36218"
         x="149.00002"
         height="4.000001"
         width="10.000002"
         id="rect4470"
         style="opacity:1;fill:#ffffff;fill-opacity:0.19607843;stroke:none;stroke-width:1;stroke-miterlimit:4;stroke-dasharray:none;stroke-dashoffset:0;stroke-opacity:1" />
      <rect
         y="772.36218"
         x="150.00002"
         height="2.0000005"
         width="8.0000019"
         id="rect4459"
         style="opacity:1;fill:#424242;fill-opacity:1;stroke:none;stroke-width:1;stroke-miterlimit:4;stroke-dasharray:none;stroke-dashoffset:0;stroke-opacity:1" />
    </g>
    <g
       transform="matrix(0.26458333,0,0,0.26458333,-38.100004,51.370809)"
       id="titlebutton-maximize"
       inkscape:label="#g6148">
      <rect
         ry="1.6668508"
         y="760.36218"
         x="168.00002"
         height="20.000006"
         width="20.000006"
         id="rect7132"
         style="opacity:1;fill:#4a90d9;fill-opacity:0;stroke:none;stroke-width:1;stroke-miterlimit:4;stroke-dasharray:none;stroke-dashoffset:0;stroke-opacity:1" />
      <path
         inkscape:connector-curvature="0"
         id="path6131"
         d="m 174.99999,765.36206 v 2.00001 h -2 v 8 h 8 v -2 H 183 v -8.00001 z m 2,4.00001 h 2 v 2 h -2 z"
         style="fill:#ffffff;fill-opacity:0.19607843;fill-rule:evenodd;stroke:none;stroke-width:1px;stroke-linecap:butt;stroke-linejoin:miter;stroke-opacity:1" />
      <path
         inkscape:connector-curvature="0"
         id="path5239"
         d="m 175.99999,766.36206 2,2.00001 h 2 v 2 l 2.00001,2 v -6.00001 z m -2,2.00001 v 6 h 6 l -2,-2 h -2 v -2 z"
         style="fill:#424242;fill-opacity:1;fill-rule:evenodd;stroke:none;stroke-width:1px;stroke-linecap:butt;stroke-linejoin:miter;stroke-opacity:1" />
    </g>
    <g
       id="titlebutton-close-hover"
       inkscape:label="#g4822">
      <rect
         ry="0.44102094"
         y="258.37079"
         x="12.170833"
         height="5.2916679"
         width="5.2916679"
         id="rect5292"
         style="opacity:1;fill:#a02c2c;fill-opacity:0;stroke:none;stroke-width:0.26458332;stroke-miterlimit:4;stroke-dasharray:none;stroke-dashoffset:0;stroke-opacity:1" />
      <path
         inkscape:connector-curvature="0"
         id="path6145"
         d="m 13.758328,259.95827 v 0.35278 l 0.705557,0.70555 -0.705557,0.70556 v 0.35278 h 0.352777 l 0.705557,-0.70556 0.705556,0.70556 h 0.352777 v -0.35278 l -0.705556,-0.70556 0.705556,-0.70555 v -0.35278 h -0.352777 l -0.705556,0.70556 -0.705557,-0.70556 z"
         style="fill:#ffffff;fill-opacity:1;stroke:none;stroke-width:0.26458332" />
    </g>
    <g
       transform="matrix(0.26458333,0,0,0.26458333,-37.570837,48.724974)"
       id="titlebutton-minimize-hover"
       inkscape:label="#g5713">
      <rect
         ry="1.6668508"
         y="792.36218"
         x="144.00002"
         height="20.000006"
         width="20.000006"
         id="rect6163"
         style="opacity:1;fill:#4a90d9;fill-opacity:0;stroke:none;stroke-width:1;stroke-miterlimit:4;stroke-dasharray:none;stroke-dashoffset:0;stroke-opacity:1" />
      <rect
         style="opacity:1;fill:#ffffff;fill-opacity:1;stroke:none;stroke-width:1;stroke-miterlimit:4;stroke-dasharray:none;stroke-dashoffset:0;stroke-opacity:1"
         id="rect6149"
         width="8.0000019"
         height="2.0000005"
         x="150.00002"
         y="804.36218" />
    </g>
    <g
       transform="matrix(0.26458333,0,0,0.26458333,-38.100004,48.724974)"
       id="titlebutton-maximize-hover"
       inkscape:label="#g5725">
      <rect
         style="opacity:1;fill:#4a90d9;fill-opacity:0;stroke:none;stroke-width:1;stroke-miterlimit:4;stroke-dasharray:none;stroke-dashoffset:0;stroke-opacity:1"
         id="rect6161"
         width="20.000006"
         height="20.000006"
         x="168.00002"
         y="792.36218"
         ry="1.6668508" />
      <path
         style="fill:#ffffff;fill-opacity:1;fill-rule:evenodd;stroke:none;stroke-width:1px;stroke-linecap:butt;stroke-linejoin:miter;stroke-opacity:1"
         d="m 175.99999,798.36208 2,2 h 2 v 2 l 2.00001,2 v -6 z m -2,2 v 6 h 6 l -2,-2 h -2 v -2 z"
         id="path6153"
         inkscape:connector-curvature="0" />
    </g>
    <g
       transform="matrix(0.26458333,0,0,0.26458333,-42.33334,51.370809)"
       id="titlebutton-close-backdrop"
       inkscape:label="#g5719">
      <rect
         ry="1.6668508"
         y="760.36218"
         x="272.00006"
         height="20.000006"
         width="20.000006"
         id="rect7134"
         style="opacity:1;fill:#000000;fill-opacity:0;stroke:none;stroke-width:1;stroke-miterlimit:4;stroke-dasharray:none;stroke-dashoffset:0;stroke-opacity:1" />
      <path
         inkscape:connector-curvature="0"
         id="path6167"
         d="m 278.00003,766.36206 v 1.33334 l 2.66667,2.66667 -2.66667,2.66667 v 1.33333 h 1.33333 l 2.66667,-2.66667 2.66667,2.66667 h 1.33333 v -1.33333 l -2.66667,-2.66667 2.66667,-2.66667 v -1.33334 h -1.33333 l -2.66667,2.66668 -2.66667,-2.66668 z"
         style="fill:#ffffff;fill-opacity:1;stroke:none" />
    </g>
    <g
       transform="matrix(0.26458333,0,0,0.26458333,-41.275006,51.370809)"
       id="titlebutton-minimize-backdrop"
       inkscape:label="#g6158">
      <rect
         style="opacity:1;fill:#ffffff;fill-opacity:0.19607843;stroke:none;stroke-width:1;stroke-miterlimit:4;stroke-dasharray:none;stroke-dashoffset:0;stroke-opacity:1"
         id="rect6169-4"
         width="10.000002"
         height="4.000001"
         x="229.00002"
         y="771.36218" />
      <rect
         style="opacity:1;fill:#757575;fill-opacity:1;stroke:none;stroke-width:1;stroke-miterlimit:4;stroke-dasharray:none;stroke-dashoffset:0;stroke-opacity:1"
         id="rect6171-3"
         width="8.0000019"
         height="2.0000005"
         x="230.00002"
         y="772.36218" />
      <rect
         ry="1.6668508"
         y="760.36218"
         x="224.00002"
         height="20.000006"
         width="20.000006"
         id="rect7136"
         style="opacity:1;fill:#4a90d9;fill-opacity:0;stroke:none;stroke-width:1;stroke-miterlimit:4;stroke-dasharray:none;stroke-dashoffset:0;stroke-opacity:1" />
    </g>
    <g
       transform="matrix(0.26458333,0,0,0.26458333,-41.804173,51.370809)"
       id="titlebutton-maximize-backdrop"
       inkscape:label="#g6163">
      <path
         style="fill:#ffffff;fill-opacity:0.19607843;fill-rule:evenodd;stroke:none;stroke-width:1px;stroke-linecap:butt;stroke-linejoin:miter;stroke-opacity:1"
         d="m 255.00001,765.36206 v 2.00001 h -2 v 8 h 8 v -2 h 2 v -8.00001 z m 2,4.00001 h 2 v 2 h -2 z"
         id="path6173"
         inkscape:connector-curvature="0" />
      <path
         style="fill:#757575;fill-opacity:1;fill-rule:evenodd;stroke:none;stroke-width:1px;stroke-linecap:butt;stroke-linejoin:miter;stroke-opacity:1"
         d="m 256.00001,766.36206 2,2.00001 h 2 v 2 l 2,2 v -6.00001 z m -2,2.00001 v 6 h 6 l -2,-2 h -2 v -2 z"
         id="path6175"
         inkscape:connector-curvature="0" />
      <rect
         style="opacity:1;fill:#4a90d9;fill-opacity:0;stroke:none;stroke-width:1;stroke-miterlimit:4;stroke-dasharray:none;stroke-dashoffset:0;stroke-opacity:1"
         id="rect7138"
         width="20.000006"
         height="20.000006"
         x="248.00009"
         y="760.36218"
         ry="1.6668508" />
    </g>
    <g
       id="titlebutton-close"
       inkscape:label="#g4818">
      <rect
         style="opacity:1;fill:#d35f5f;fill-opacity:0;stroke:none;stroke-width:0.26458332;stroke-miterlimit:4;stroke-dasharray:none;stroke-dashoffset:0;stroke-opacity:1"
         id="rect7456"
         width="5.2916679"
         height="5.2916679"
         x="12.170833"
         y="252.54997"
         ry="0.44102094" />
      <path
         style="fill:#ffffff;fill-opacity:1;stroke:none;stroke-width:0.26458332"
         d="m 13.758328,254.13744 v 0.35278 l 0.705557,0.70555 -0.705557,0.70556 v 0.35278 h 0.352777 l 0.705557,-0.70556 0.705556,0.70556 h 0.352777 v -0.35278 l -0.705556,-0.70556 0.705556,-0.70555 v -0.35278 h -0.352777 l -0.705556,0.70556 -0.705557,-0.70556 z"
         id="path7458"
         inkscape:connector-curvature="0" />
    </g>
    <g
       transform="matrix(0.26458065,0,0,0.26458333,22.224957,-6.3083331)"
       id="scrollarrow-down"
       inkscape:label="#g4205">
      <rect
         ry="0.087484904"
         y="1038.3622"
         x="0"
         height="14"
         width="14"
         id="rect4153"
         style="opacity:1;fill:#00ffff;fill-opacity:0;stroke:none;stroke-width:0.5;stroke-miterlimit:4;stroke-dasharray:none;stroke-opacity:1" />
      <path
         inkscape:connector-curvature="0"
         id="path4149"
         d="m 7,1047.3622 -4,-4 h 2 l 2,2 2,-2 h 2 z"
         style="fill:#2c2c2c;fill-opacity:1;fill-rule:evenodd;stroke:none;stroke-width:1px;stroke-linecap:butt;stroke-linejoin:miter;stroke-opacity:1" />
    </g>
    <g
       transform="matrix(0.26458065,0,0,0.26458333,22.224957,-6.3083331)"
       id="scrollarrow-down-insensitive"
       inkscape:label="#g4209">
      <rect
         style="opacity:1;fill:#00ffff;fill-opacity:0;stroke:none;stroke-width:0.5;stroke-miterlimit:4;stroke-dasharray:none;stroke-opacity:1"
         id="rect4155"
         width="14"
         height="14"
         x="-16"
         y="1038.3622"
         ry="0.087484904" />
      <path
         style="fill:#818181;fill-opacity:1;fill-rule:evenodd;stroke:none;stroke-width:1px;stroke-linecap:butt;stroke-linejoin:miter;stroke-opacity:1"
         d="m -9,1047.3622 -4,-4 h 2 l 2,2 2,-2 h 2 z"
         id="path4151"
         inkscape:connector-curvature="0" />
    </g>
    <g
       transform="matrix(0.26458065,0,0,0.26458333,22.224957,-6.3083331)"
       id="scrollarrow-up"
       inkscape:label="#g4185">
      <rect
         transform="scale(1,-1)"
         style="opacity:1;fill:#00ffff;fill-opacity:0;stroke:none;stroke-width:0.5;stroke-miterlimit:4;stroke-dasharray:none;stroke-opacity:1"
         id="rect4157"
         width="14"
         height="14"
         x="0"
         y="-1036.3622"
         ry="0.087484904" />
      <path
         style="fill:#2c2c2c;fill-opacity:1;fill-rule:evenodd;stroke:none;stroke-width:1px;stroke-linecap:butt;stroke-linejoin:miter;stroke-opacity:1"
         d="m 7,1027.3622 -4,4 h 2 l 2,-2 2,2 h 2 z"
         id="path4159"
         inkscape:connector-curvature="0" />
    </g>
    <g
       transform="matrix(0.26458065,0,0,0.26458333,22.224957,-6.3083331)"
       id="scrollarrow-up-insensitive"
       inkscape:label="#g4181">
      <rect
         transform="scale(1,-1)"
         ry="0.087484904"
         y="-1036.3622"
         x="-16"
         height="14"
         width="14"
         id="rect4161"
         style="opacity:1;fill:#00ffff;fill-opacity:0;stroke:none;stroke-width:0.5;stroke-miterlimit:4;stroke-dasharray:none;stroke-opacity:1" />
      <path
         inkscape:connector-curvature="0"
         id="path4163"
         d="m -9,1027.3622 -4,4 h 2 l 2,-2 2,2 h 2 z"
         style="fill:#818181;fill-opacity:1;fill-rule:evenodd;stroke:none;stroke-width:1px;stroke-linecap:butt;stroke-linejoin:miter;stroke-opacity:1" />
    </g>
    <g
       transform="matrix(0.26458065,0,0,0.26458333,22.224957,-6.3083331)"
       id="scrollarrow-left"
       inkscape:label="#g4197">
      <rect
         transform="rotate(90)"
         style="opacity:1;fill:#00ffff;fill-opacity:0;stroke:none;stroke-width:0.5;stroke-miterlimit:4;stroke-dasharray:none;stroke-opacity:1"
         id="rect4165"
         width="14"
         height="14"
         x="1038.3622"
         y="-46"
         ry="0.087484904" />
      <path
         style="fill:#2c2c2c;fill-opacity:1;fill-rule:evenodd;stroke:none;stroke-width:1px;stroke-linecap:butt;stroke-linejoin:miter;stroke-opacity:1"
         d="m 37,1045.3622 4,-4 v 2 l -2,2 2,2 v 2 z"
         id="path4167"
         inkscape:connector-curvature="0" />
    </g>
    <g
       transform="matrix(0.26458065,0,0,0.26458333,22.224957,-6.3083331)"
       id="scrollarrow-left-insensitive"
       inkscape:label="#g4201">
      <rect
         transform="rotate(90)"
         ry="0.087484904"
         y="-30"
         x="1038.3622"
         height="14"
         width="14"
         id="rect4169"
         style="opacity:1;fill:#00ffff;fill-opacity:0;stroke:none;stroke-width:0.5;stroke-miterlimit:4;stroke-dasharray:none;stroke-opacity:1" />
      <path
         inkscape:connector-curvature="0"
         id="path4171"
         d="m 21,1045.3622 4,-4 v 2 l -2,2 2,2 v 2 z"
         style="fill:#818181;fill-opacity:1;fill-rule:evenodd;stroke:none;stroke-width:1px;stroke-linecap:butt;stroke-linejoin:miter;stroke-opacity:1" />
    </g>
    <g
       transform="matrix(0.26458065,0,0,0.26458333,22.224957,-6.3083331)"
       id="scrollarrow-right"
       inkscape:label="#g4193">
      <rect
         ry="0.087484904"
         y="32"
         x="1022.3622"
         height="14"
         width="14"
         id="rect4173"
         style="opacity:1;fill:#00ffff;fill-opacity:0;stroke:none;stroke-width:0.5;stroke-miterlimit:4;stroke-dasharray:none;stroke-opacity:1"
         transform="matrix(0,1,1,0,0,0)" />
      <path
         inkscape:connector-curvature="0"
         id="path4175"
         d="m 41,1029.3622 -4,-4 v 2 l 2,2 -2,2 v 2 z"
         style="fill:#2c2c2c;fill-opacity:1;fill-rule:evenodd;stroke:none;stroke-width:1px;stroke-linecap:butt;stroke-linejoin:miter;stroke-opacity:1" />
    </g>
    <g
       transform="matrix(0.26458065,0,0,0.26458333,22.224957,-6.3083331)"
       id="scrollarrow-right-insensitive"
       inkscape:label="#g4189">
      <rect
         style="opacity:1;fill:#00ffff;fill-opacity:0;stroke:none;stroke-width:0.5;stroke-miterlimit:4;stroke-dasharray:none;stroke-opacity:1"
         id="rect4177"
         width="14"
         height="14"
         x="1022.3622"
         y="16"
         ry="0.087484904"
         transform="matrix(0,1,1,0,0,0)" />
      <path
         style="fill:#818181;fill-opacity:1;fill-rule:evenodd;stroke:none;stroke-width:1px;stroke-linecap:butt;stroke-linejoin:miter;stroke-opacity:1"
         d="m 25,1029.3622 -4,-4 v 2 l 2,2 -2,2 v 2 z"
         id="path4179"
         inkscape:connector-curvature="0" />
    </g>
    <g
       transform="matrix(0.26458333,0,0,0.26458333,-80.962533,33.908333)"
       id="scrollarrow-down-dark"
       inkscape:label="#g5512">
      <rect
         style="opacity:1;fill:#00ffff;fill-opacity:0;stroke:none;stroke-width:0.5;stroke-miterlimit:4;stroke-dasharray:none;stroke-opacity:1"
         id="rect5430"
         width="14"
         height="14"
         x="542"
         y="886.36218"
         ry="0.087484904" />
      <path
         style="fill:#dee2e5;fill-opacity:1;fill-rule:evenodd;stroke:none;stroke-width:1px;stroke-linecap:butt;stroke-linejoin:miter;stroke-opacity:1"
         d="m 549.00002,895.3622 -4,-4 h 2 l 2,2 2,-2 h 2 z"
         id="path5432"
         inkscape:connector-curvature="0" />
    </g>
    <g
       transform="matrix(0.26458333,0,0,0.26458333,-80.962533,33.908333)"
       id="scrollarrow-down-insensitive-dark"
       inkscape:label="#g5520">
      <rect
         ry="0.087484904"
         y="886.36218"
         x="526"
         height="14"
         width="14"
         id="rect5436"
         style="opacity:1;fill:#00ffff;fill-opacity:0;stroke:none;stroke-width:0.5;stroke-miterlimit:4;stroke-dasharray:none;stroke-opacity:1" />
      <path
         inkscape:connector-curvature="0"
         id="path5438"
         d="m 533.00002,895.3622 -4,-4 h 2 l 2,2 2,-2 h 2 z"
         style="fill:#7e7e80;fill-opacity:1;fill-rule:evenodd;stroke:none;stroke-width:1px;stroke-linecap:butt;stroke-linejoin:miter;stroke-opacity:1" />
    </g>
    <g
       transform="matrix(0.26458333,0,0,0.26458333,-80.962533,33.908333)"
       id="scrollarrow-up-dark"
       inkscape:label="#g5508">
      <rect
         ry="0.087484904"
         y="-884.36218"
         x="542"
         height="14"
         width="14"
         id="rect5442"
         style="opacity:1;fill:#00ffff;fill-opacity:0;stroke:none;stroke-width:0.5;stroke-miterlimit:4;stroke-dasharray:none;stroke-opacity:1"
         transform="scale(1,-1)" />
      <path
         inkscape:connector-curvature="0"
         id="path5444"
         d="m 549.00002,875.3622 -4,4 h 2 l 2,-2 2,2 h 2 z"
         style="fill:#dee2e5;fill-opacity:1;fill-rule:evenodd;stroke:none;stroke-width:1px;stroke-linecap:butt;stroke-linejoin:miter;stroke-opacity:1" />
    </g>
    <g
       transform="matrix(0.26458333,0,0,0.26458333,-80.962533,33.908333)"
       id="scrollarrow-up-insensitive-dark"
       inkscape:label="#g5516">
      <rect
         style="opacity:1;fill:#00ffff;fill-opacity:0;stroke:none;stroke-width:0.5;stroke-miterlimit:4;stroke-dasharray:none;stroke-opacity:1"
         id="rect5448"
         width="14"
         height="14"
         x="526"
         y="-884.36218"
         ry="0.087484904"
         transform="scale(1,-1)" />
      <path
         style="fill:#7e7e80;fill-opacity:1;fill-rule:evenodd;stroke:none;stroke-width:1px;stroke-linecap:butt;stroke-linejoin:miter;stroke-opacity:1"
         d="m 533.00002,875.3622 -4,4 h 2 l 2,-2 2,2 h 2 z"
         id="path5450"
         inkscape:connector-curvature="0" />
    </g>
    <g
       transform="matrix(0.26458333,0,0,0.26458333,-80.962533,33.908333)"
       id="scrollarrow-left-dark"
       inkscape:label="#g5496">
      <rect
         ry="0.087484904"
         y="-588"
         x="886.36218"
         height="14"
         width="14"
         id="rect5454"
         style="opacity:1;fill:#00ffff;fill-opacity:0;stroke:none;stroke-width:0.5;stroke-miterlimit:4;stroke-dasharray:none;stroke-opacity:1"
         transform="rotate(90)" />
      <path
         inkscape:connector-curvature="0"
         id="path5456"
         d="m 579.00002,893.3622 4,-4 v 2 l -2,2 2,2 v 2 z"
         style="fill:#dee2e5;fill-opacity:1;fill-rule:evenodd;stroke:none;stroke-width:1px;stroke-linecap:butt;stroke-linejoin:miter;stroke-opacity:1" />
    </g>
    <g
       transform="matrix(0.26458333,0,0,0.26458333,-80.962533,33.908333)"
       id="scrollarrow-left-insensitive-dark"
       inkscape:label="#g5500">
      <rect
         style="opacity:1;fill:#00ffff;fill-opacity:0;stroke:none;stroke-width:0.5;stroke-miterlimit:4;stroke-dasharray:none;stroke-opacity:1"
         id="rect5460"
         width="14"
         height="14"
         x="886.36218"
         y="-572"
         ry="0.087484904"
         transform="rotate(90)" />
      <path
         style="fill:#7e7e80;fill-opacity:1;fill-rule:evenodd;stroke:none;stroke-width:1px;stroke-linecap:butt;stroke-linejoin:miter;stroke-opacity:1"
         d="m 563.00002,893.3622 4,-4 v 2 l -2,2 2,2 v 2 z"
         id="path5462"
         inkscape:connector-curvature="0" />
    </g>
    <g
       transform="matrix(0.26458333,0,0,0.26458333,-80.962533,33.908333)"
       id="scrollarrow-right-dark"
       inkscape:label="#g5492">
      <rect
         transform="matrix(0,1,1,0,0,0)"
         style="opacity:1;fill:#00ffff;fill-opacity:0;stroke:none;stroke-width:0.5;stroke-miterlimit:4;stroke-dasharray:none;stroke-opacity:1"
         id="rect5466"
         width="14"
         height="14"
         x="870.36218"
         y="574"
         ry="0.087484904" />
      <path
         style="fill:#dee2e5;fill-opacity:1;fill-rule:evenodd;stroke:none;stroke-width:1px;stroke-linecap:butt;stroke-linejoin:miter;stroke-opacity:1"
         d="m 583.00002,877.3622 -4,-4 v 2 l 2,2 -2,2 v 2 z"
         id="path5468"
         inkscape:connector-curvature="0" />
    </g>
    <g
       transform="matrix(0.26458333,0,0,0.26458333,-80.962533,33.908333)"
       id="scrollarrow-right-insensitive-dark"
       inkscape:label="#g5504">
      <rect
         transform="matrix(0,1,1,0,0,0)"
         ry="0.087484904"
         y="558"
         x="870.36218"
         height="14"
         width="14"
         id="rect5472"
         style="opacity:1;fill:#00ffff;fill-opacity:0;stroke:none;stroke-width:0.5;stroke-miterlimit:4;stroke-dasharray:none;stroke-opacity:1" />
      <path
         inkscape:connector-curvature="0"
         id="path5474"
         d="m 567.00002,877.3622 -4,-4 v 2 l 2,2 -2,2 v 2 z"
         style="fill:#7e7e80;fill-opacity:1;fill-rule:evenodd;stroke:none;stroke-width:1px;stroke-linecap:butt;stroke-linejoin:miter;stroke-opacity:1" />
    </g>
    <g
       transform="matrix(0.26458333,0,0,0.26458333,-76.729205,51.370846)"
       id="titlebutton-minimize-dark"
       inkscape:label="#g5378">
      <rect
         ry="1.6668506"
         y="760.36212"
         x="444.00003"
         height="20.000004"
         width="20.000004"
         id="rect7258"
         style="opacity:1;fill:#4a90d9;fill-opacity:0;stroke:none;stroke-width:1;stroke-miterlimit:4;stroke-dasharray:none;stroke-dashoffset:0;stroke-opacity:1" />
      <rect
         style="opacity:1;fill:#dee2e5;fill-opacity:1;stroke:none;stroke-width:1;stroke-miterlimit:4;stroke-dasharray:none;stroke-dashoffset:0;stroke-opacity:1"
         id="rect7268"
         width="8.000001"
         height="2.0000002"
         x="450.00003"
         y="772.36212" />
    </g>
    <g
       transform="matrix(0.26458333,0,0,0.26458333,-77.258372,51.370846)"
       id="titlebutton-maximize-dark"
       inkscape:label="#g5374">
      <rect
         style="opacity:1;fill:#4a90d9;fill-opacity:0;stroke:none;stroke-width:1;stroke-miterlimit:4;stroke-dasharray:none;stroke-dashoffset:0;stroke-opacity:1"
         id="rect7262"
         width="20.000004"
         height="20.000004"
         x="468.00003"
         y="760.36212"
         ry="1.6668506" />
      <path
         style="fill:#dee2e5;fill-opacity:1;fill-rule:evenodd;stroke:none;stroke-width:1px;stroke-linecap:butt;stroke-linejoin:miter;stroke-opacity:1"
         d="m 476.00001,766.36206 2,2.00001 h 2 v 2 l 2,2 v -6.00001 z m -2,2.00001 v 6 h 6 l -2,-2 h -2 v -2 z"
         id="path7272"
         inkscape:connector-curvature="0" />
    </g>
    <g
       id="titlebutton-close-hover-dark"
       inkscape:label="#g4826">
      <rect
         style="opacity:1;fill:#d35f5f;fill-opacity:0;stroke:none;stroke-width:0.26458332;stroke-miterlimit:4;stroke-dasharray:none;stroke-dashoffset:0;stroke-opacity:1"
         id="rect7274"
         width="5.2916675"
         height="5.2916675"
         x="52.387466"
         y="258.37082"
         ry="0.44102088" />
      <path
         style="fill:#ffffff;fill-opacity:1;stroke:none;stroke-width:0.26458332"
         d="m 53.974962,259.95831 v 0.35277 l 0.705556,0.70556 -0.705556,0.70556 v 0.35277 h 0.352777 l 0.705556,-0.70555 0.705557,0.70555 h 0.352777 v -0.35277 l -0.705557,-0.70556 0.705557,-0.70556 v -0.35277 h -0.352777 l -0.705557,0.70555 -0.705556,-0.70555 z"
         id="path7276"
         inkscape:connector-curvature="0" />
    </g>
    <g
       id="titlebutton-minimize-hover-dark"
       inkscape:label="#g5057">
      <rect
         style="opacity:1;fill:#4a90d9;fill-opacity:0;stroke:none;stroke-width:0.26458332;stroke-miterlimit:4;stroke-dasharray:none;stroke-dashoffset:0;stroke-opacity:1"
         id="rect7278"
         width="5.2916675"
         height="5.2916675"
         x="40.7458"
         y="258.37082"
         ry="0.44102088" />
      <rect
         y="261.54581"
         x="42.333302"
         height="0.5291667"
         width="2.1166668"
         id="rect7280"
         style="opacity:1;fill:#ffffff;fill-opacity:1;stroke:none;stroke-width:0.26458332;stroke-miterlimit:4;stroke-dasharray:none;stroke-dashoffset:0;stroke-opacity:1" />
    </g>
    <g
       id="titlebutton-maximize-hover-dark"
       inkscape:label="#g5061">
      <rect
         ry="0.44102088"
         y="258.37082"
         x="46.566635"
         height="5.2916675"
         width="5.2916675"
         id="rect7282"
         style="opacity:1;fill:#4a90d9;fill-opacity:0;stroke:none;stroke-width:0.26458332;stroke-miterlimit:4;stroke-dasharray:none;stroke-dashoffset:0;stroke-opacity:1" />
      <path
         inkscape:connector-curvature="0"
         id="path7284"
         d="m 48.683296,259.95831 0.529166,0.52916 h 0.529167 v 0.52917 l 0.529167,0.52917 v -1.5875 z m -0.529167,0.52916 v 1.5875 h 1.5875 l -0.529167,-0.52916 h -0.529166 v -0.52917 z"
         style="fill:#ffffff;fill-opacity:1;fill-rule:evenodd;stroke:none;stroke-width:0.26458332px;stroke-linecap:butt;stroke-linejoin:miter;stroke-opacity:1" />
    </g>
    <g
       transform="matrix(0.26458333,0,0,0.26458333,-81.491708,51.370854)"
       id="titlebutton-close-backdrop-dark"
       inkscape:label="#g5355-5">
      <g
         inkscape:label="#g6205"
         id="titlebutton-close-backdrop-dark-5"
         transform="translate(-8.3841861e-7,-6.0161582e-5)">
        <path
           inkscape:connector-curvature="0"
           id="path7288-2"
           d="m 578.00003,766.36212 v 1.33334 l 2.66667,2.66667 -2.66667,2.66667 v 1.33333 h 1.33333 l 2.66667,-2.66667 2.66667,2.66667 h 1.33333 v -1.33333 l -2.66667,-2.66667 2.66667,-2.66667 v -1.33334 h -1.33333 l -2.66667,2.66668 -2.66667,-2.66668 z"
           style="fill:#9c9c9e;fill-opacity:1;stroke:none" />
        <rect
           ry="1.6668506"
           y="760.36218"
           x="572.00006"
           height="20.000004"
           width="20.000004"
           id="rect7298-3"
           style="opacity:1;fill:#4a90d9;fill-opacity:0;stroke:none;stroke-width:1;stroke-miterlimit:4;stroke-dasharray:none;stroke-dashoffset:0;stroke-opacity:1" />
      </g>
    </g>
    <g
       transform="matrix(0.26458333,0,0,0.26458333,-80.962541,51.370854)"
       id="titlebutton-maximize-backdrop-dark"
       inkscape:label="#g5360-8">
      <g
         inkscape:label="#g6201"
         id="titlebutton-maximize-backdrop-dark-8"
         transform="translate(-8.3841861e-7,-6.0161582e-5)">
        <path
           style="fill:#7e7e80;fill-opacity:1;fill-rule:evenodd;stroke:none;stroke-width:1px;stroke-linecap:butt;stroke-linejoin:miter;stroke-opacity:1"
           d="m 556.00002,766.36212 2,2.00001 h 2 v 2 l 2,2 v -6.00001 z m -2,2.00001 v 6 h 6 l -2,-2 h -2 v -2 z"
           id="path7296-1"
           inkscape:connector-curvature="0" />
        <rect
           style="opacity:1;fill:#4a90d9;fill-opacity:0;stroke:none;stroke-width:1;stroke-miterlimit:4;stroke-dasharray:none;stroke-dashoffset:0;stroke-opacity:1"
           id="rect7302-3"
           width="20.000004"
           height="20.000004"
           x="548.00006"
           y="760.36218"
           ry="1.6668506" />
      </g>
    </g>
    <g
       transform="matrix(0.26458333,0,0,0.26458333,-80.433374,51.370854)"
       id="titlebutton-minimize-backdrop-dark"
       inkscape:label="#g5365-8">
      <g
         inkscape:label="#g6197"
         id="titlebutton-minimize-backdrop-dark-1"
         transform="translate(-8.3841861e-7,-6.0161582e-5)">
        <rect
           style="opacity:1;fill:#7e7e80;fill-opacity:1;stroke:none;stroke-width:1;stroke-miterlimit:4;stroke-dasharray:none;stroke-dashoffset:0;stroke-opacity:1"
           id="rect7292-9"
           width="8.000001"
           height="2.0000002"
           x="530.00006"
           y="772.36218" />
        <rect
           ry="1.6668506"
           y="760.36218"
           x="524.00006"
           height="20.000004"
           width="20.000004"
           id="rect7300-9"
           style="opacity:1;fill:#4a90d9;fill-opacity:0;stroke:none;stroke-width:1;stroke-miterlimit:4;stroke-dasharray:none;stroke-dashoffset:0;stroke-opacity:1" />
      </g>
    </g>
    <g
       id="titlebutton-close-dark"
       inkscape:label="#g4830">
      <rect
         ry="0.44102094"
         y="252.54997"
         x="52.387516"
         height="5.2916679"
         width="5.2916679"
         id="rect5271"
         style="opacity:1;fill:#a45f5f;fill-opacity:0;stroke:none;stroke-width:0.26458332;stroke-miterlimit:4;stroke-dasharray:none;stroke-dashoffset:0;stroke-opacity:1" />
      <path
         inkscape:connector-curvature="0"
         id="path5273"
         d="m 53.975014,254.13744 v 0.35278 l 0.705556,0.70555 -0.705556,0.70556 v 0.35278 h 0.352777 l 0.705556,-0.70556 0.705556,0.70556 h 0.352777 v -0.35278 l -0.705556,-0.70556 0.705556,-0.70555 v -0.35278 h -0.352777 l -0.705556,0.70556 -0.705556,-0.70556 z"
         style="fill:#ffffff;fill-opacity:1;stroke:none;stroke-width:0.26458332" />
    </g>
    <g
       id="titlebutton-unmaximize"
       inkscape:label="#g1159">
      <rect
         style="opacity:1;fill:#4a90d9;fill-opacity:0;stroke:none;stroke-width:0.26458332;stroke-miterlimit:4;stroke-dasharray:none;stroke-dashoffset:0;stroke-opacity:1"
         id="rect1099"
         width="5.2916679"
         height="5.2916679"
         x="6.3499994"
         y="264.19165"
         ry="0.44102094" />
      <path
         style="fill:#ffffff;fill-opacity:0.19607843;fill-rule:evenodd;stroke:none;stroke-width:0.26458332px;stroke-linecap:butt;stroke-linejoin:miter;stroke-opacity:1"
         d="m 9.2604174,267.10207 -1.0583334,-1.05833 -0.5291746,-5e-5 v 2.11667 h 2.1166667 l 7.9e-6,-0.52912 -0.5291666,-0.52917 H 8.7312507 Z m -1.0583334,-1.05833 1.0583334,1.05833 H 8.7312507 v -0.52917 z"
         id="path1101"
         inkscape:connector-curvature="0"
         sodipodi:nodetypes="cccccccccccccc" />
      <path
         id="path1103"
         transform="matrix(0.26458333,0,0,0.26458333,0,252.02082)"
         d="M 30 54 L 30 60 L 36 60 L 34 58 L 32 58 L 32 56 L 30 54 z "
         style="fill:#424242;fill-opacity:1;fill-rule:evenodd;stroke:none;stroke-width:0.99999994px;stroke-linecap:butt;stroke-linejoin:miter;stroke-opacity:1" />
      <path
         inkscape:connector-curvature="0"
         style="fill:#424242;fill-opacity:0.3922652;fill-rule:evenodd;stroke:none;stroke-width:0.26458332px;stroke-linecap:butt;stroke-linejoin:miter;stroke-opacity:1"
         d="m 10.054167,267.36665 v -1.5875 H 8.4666666 l 0.5291667,0.52917 h 0.5291666 v 0.52916 z"
         id="path1130" />
    </g>
    <g
       id="titlebutton-unmaximize-hover"
       inkscape:label="#g1271">
      <rect
         inkscape:label="#rect1107"
         ry="0.44102094"
         y="270.01248"
         x="6.3499994"
         height="5.2916679"
         width="5.2916679"
         id="brainfart"
         style="opacity:1;fill:#4a90d9;fill-opacity:0;stroke:none;stroke-width:0.26458332;stroke-miterlimit:4;stroke-dasharray:none;stroke-dashoffset:0;stroke-opacity:1" />
      <path
         inkscape:connector-curvature="0"
         style="fill:#ffffff;fill-opacity:1;fill-rule:evenodd;stroke:none;stroke-width:0.26458332px;stroke-linecap:butt;stroke-linejoin:miter;stroke-opacity:1"
         d="m 7.9374999,272.12919 v 1.5875 h 1.5875 L 8.9958332,273.18752 H 8.4666666 v -0.52917 z"
         id="path1134" />
      <path
         id="path1136"
         d="m 10.054167,273.18752 v -1.5875 H 8.4666666 l 0.5291667,0.52917 h 0.5291666 v 0.52916 z"
         style="fill:#ffffff;fill-opacity:0.39215686;fill-rule:evenodd;stroke:none;stroke-width:0.26458332px;stroke-linecap:butt;stroke-linejoin:miter;stroke-opacity:1"
         inkscape:connector-curvature="0" />
    </g>
    <g
       id="titlebutton-unmaximize-backdrop"
       inkscape:label="#g1165">
      <rect
         ry="0.44102094"
         y="258.37082"
         x="23.812517"
         height="5.2916679"
         width="5.2916679"
         id="rect1142"
         style="opacity:1;fill:#4a90d9;fill-opacity:0;stroke:none;stroke-width:0.26458332;stroke-miterlimit:4;stroke-dasharray:none;stroke-dashoffset:0;stroke-opacity:1" />
      <path
         sodipodi:nodetypes="cccccccccccccc"
         inkscape:connector-curvature="0"
         id="path1149"
         d="m 26.722928,261.2812 -1.058334,-1.05833 -0.529175,-5e-5 v 2.11667 h 2.116668 l 8e-6,-0.52912 -0.529167,-0.52917 h -0.529167 z m -1.058334,-1.05833 1.058334,1.05833 h -0.529167 v -0.52917 z"
         style="fill:#ffffff;fill-opacity:0.19607843;fill-rule:evenodd;stroke:none;stroke-width:0.26458332px;stroke-linecap:butt;stroke-linejoin:miter;stroke-opacity:1" />
      <path
         inkscape:connector-curvature="0"
         style="fill:#757575;fill-opacity:1;fill-rule:evenodd;stroke:none;stroke-width:0.26458332px;stroke-linecap:butt;stroke-linejoin:miter;stroke-opacity:1"
         d="m 25.40001,260.48745 v 1.5875 h 1.587501 l -0.529167,-0.52917 h -0.529167 v -0.52916 z"
         id="path1151" />
      <path
         id="path1153"
         d="m 27.516678,261.54578 v -1.5875 h -1.587501 l 0.529167,0.52917 h 0.529167 v 0.52916 z"
         style="fill:#424242;fill-opacity:0.39226523;fill-rule:evenodd;stroke:none;stroke-width:0.26458332px;stroke-linecap:butt;stroke-linejoin:miter;stroke-opacity:1"
         inkscape:connector-curvature="0" />
    </g>
    <g
       id="titlebutton-unmaximize-dark"
       inkscape:label="#g1253">
      <rect
         ry="0.44102088"
         y="264.19165"
         x="46.566635"
         height="5.2916675"
         width="5.2916675"
         id="rect1167"
         style="opacity:1;fill:#4a90d9;fill-opacity:0;stroke:none;stroke-width:0.26458332;stroke-miterlimit:4;stroke-dasharray:none;stroke-dashoffset:0;stroke-opacity:1" />
      <path
         id="path1103-6"
         d="m 48.154169,266.30832 v 1.5875 h 1.5875 l -0.529167,-0.52917 h -0.529166 v -0.52916 z"
         style="fill:#dee2e5;fill-opacity:1;fill-rule:evenodd;stroke:none;stroke-width:0.26458332px;stroke-linecap:butt;stroke-linejoin:miter;stroke-opacity:1"
         inkscape:connector-curvature="0" />
      <path
         inkscape:connector-curvature="0"
         style="fill:#dee2e5;fill-opacity:0.39215686;fill-rule:evenodd;stroke:none;stroke-width:0.26458332px;stroke-linecap:butt;stroke-linejoin:miter;stroke-opacity:1"
         d="m 50.270836,267.36665 v -1.5875 h -1.5875 l 0.529166,0.52917 h 0.529167 v 0.52916 z"
         id="path1130-7" />
    </g>
    <g
       id="titlebutton-unmaximize-hover-dark"
       inkscape:label="#g1258">
      <rect
         style="opacity:1;fill:#4a90d9;fill-opacity:0;stroke:none;stroke-width:0.26458332;stroke-miterlimit:4;stroke-dasharray:none;stroke-dashoffset:0;stroke-opacity:1"
         id="rect1173"
         width="5.2916675"
         height="5.2916675"
         x="46.566635"
         y="270.01248"
         ry="0.44102088" />
      <path
         inkscape:connector-curvature="0"
         style="fill:#ffffff;fill-opacity:1;fill-rule:evenodd;stroke:none;stroke-width:0.26458332px;stroke-linecap:butt;stroke-linejoin:miter;stroke-opacity:1"
         d="m 48.154169,272.12919 v 1.5875 h 1.5875 l -0.529167,-0.52917 h -0.529166 v -0.52916 z"
         id="path1219" />
      <path
         id="path1221"
         d="m 50.270836,273.18752 v -1.5875 h -1.5875 l 0.529166,0.52917 h 0.529167 v 0.52916 z"
         style="fill:#ffffff;fill-opacity:0.39215687;fill-rule:evenodd;stroke:none;stroke-width:0.26458332px;stroke-linecap:butt;stroke-linejoin:miter;stroke-opacity:1"
         inkscape:connector-curvature="0" />
    </g>
    <g
       id="titlebutton-unmaximize-backdrop-dark"
       inkscape:label="#g1248">
      <rect
         style="opacity:1;fill:#4a90d9;fill-opacity:0;stroke:none;stroke-width:0.26458332;stroke-miterlimit:4;stroke-dasharray:none;stroke-dashoffset:0;stroke-opacity:1"
         id="rect1230"
         width="5.2916675"
         height="5.2916675"
         x="64.029137"
         y="258.37082"
         ry="0.44102088" />
      <path
         inkscape:connector-curvature="0"
         style="fill:#7e7e80;fill-opacity:1;fill-rule:evenodd;stroke:none;stroke-width:0.26458332px;stroke-linecap:butt;stroke-linejoin:miter;stroke-opacity:1"
         d="m 65.61668,260.48745 v 1.5875 h 1.5875 l -0.529167,-0.52917 h -0.529166 v -0.52916 z"
         id="path1241" />
      <path
         id="path1243"
         d="m 67.733347,261.54578 v -1.5875 h -1.5875 l 0.529166,0.52917 h 0.529167 v 0.52916 z"
         style="fill:#7e7e80;fill-opacity:0.39215687;fill-rule:evenodd;stroke:none;stroke-width:0.26458332px;stroke-linecap:butt;stroke-linejoin:miter;stroke-opacity:1"
         inkscape:connector-curvature="0" />
    </g>
  </g>
</svg>
