<?xml version="1.0" encoding="UTF-8" standalone="no"?>
<!-- Created with Inkscape (http://www.inkscape.org/) -->

<svg
   xmlns:dc="http://purl.org/dc/elements/1.1/"
   xmlns:cc="http://creativecommons.org/ns#"
   xmlns:rdf="http://www.w3.org/1999/02/22-rdf-syntax-ns#"
   xmlns:svg="http://www.w3.org/2000/svg"
   xmlns="http://www.w3.org/2000/svg"
   xmlns:sodipodi="http://sodipodi.sourceforge.net/DTD/sodipodi-0.dtd"
   xmlns:inkscape="http://www.inkscape.org/namespaces/inkscape"
   width="500"
   height="200"
   viewBox="0 0 132.29166 52.916668"
   version="1.1"
   id="svg8"
   inkscape:version="0.92.1 r"
   sodipodi:docname="assets2.svg">
  <defs
     id="defs2" />
  <sodipodi:namedview
     id="base"
     pagecolor="#ebeced"
     bordercolor="#666666"
     borderopacity="1.0"
     inkscape:pageopacity="0"
     inkscape:pageshadow="2"
     inkscape:zoom="1"
     inkscape:cx="304.48276"
     inkscape:cy="117.064"
     inkscape:document-units="mm"
     inkscape:current-layer="layer1"
     showgrid="false"
     units="px"
     inkscape:window-width="1600"
     inkscape:window-height="829"
     inkscape:window-x="0"
     inkscape:window-y="0"
     inkscape:window-maximized="1" />
  <metadata
     id="metadata5">
    <rdf:RDF>
      <cc:Work
         rdf:about="">
        <dc:format>image/svg+xml</dc:format>
        <dc:type
           rdf:resource="http://purl.org/dc/dcmitype/StillImage" />
        <dc:title></dc:title>
      </cc:Work>
    </rdf:RDF>
  </metadata>
  <g
     inkscape:label="Layer 1"
     inkscape:groupmode="layer"
     id="layer1"
     transform="translate(0,-244.08332)">
    <g
       transform="matrix(0.26458333,0,0,0.26458333,-37.570837,43.433307)"
       id="titlebutton-minimize"
       inkscape:label="#g6143">
      <rect
         style="opacity:1;fill:#3399ff;fill-opacity:0;stroke:none;stroke-width:1;stroke-miterlimit:4;stroke-dasharray:none;stroke-dashoffset:0;stroke-opacity:1"
         id="rect7130"
         width="20.000006"
         height="20.000006"
         x="144.00002"
         y="760.36218"
         ry="1.6668508" />
      <rect
         y="771.36218"
         x="149.00002"
         height="4.000001"
         width="10.000002"
         id="rect4470"
         style="opacity:1;fill:#ffffff;fill-opacity:0.19607843;stroke:none;stroke-width:1;stroke-miterlimit:4;stroke-dasharray:none;stroke-dashoffset:0;stroke-opacity:1" />
      <rect
         y="772.36218"
         x="150.00002"
         height="2.0000005"
         width="8.0000019"
         id="rect4459"
         style="opacity:1;fill:#424242;fill-opacity:1;stroke:none;stroke-width:1;stroke-miterlimit:4;stroke-dasharray:none;stroke-dashoffset:0;stroke-opacity:1" />
    </g>
    <g
       transform="matrix(0.26458333,0,0,0.26458333,-38.100004,43.433307)"
       id="titlebutton-maximize"
       inkscape:label="#g6148">
      <rect
         ry="1.6668508"
         y="760.36218"
         x="168.00002"
         height="20.000006"
         width="20.000006"
         id="rect7132"
         style="opacity:1;fill:#3399ff;fill-opacity:0;stroke:none;stroke-width:1;stroke-miterlimit:4;stroke-dasharray:none;stroke-dashoffset:0;stroke-opacity:1" />
      <path
         inkscape:connector-curvature="0"
         id="path6131"
         d="m 174.99999,765.36206 v 2.00001 h -2 v 8 h 8 v -2 H 183 v -8.00001 z m 2,4.00001 h 2 v 2 h -2 z"
         style="fill:#ffffff;fill-opacity:0.19607843;fill-rule:evenodd;stroke:none;stroke-width:1px;stroke-linecap:butt;stroke-linejoin:miter;stroke-opacity:1" />
      <path
         inkscape:connector-curvature="0"
         id="path5239"
         d="m 175.99999,766.36206 2,2.00001 h 2 v 2 l 2.00001,2 v -6.00001 z m -2,2.00001 v 6 h 6 l -2,-2 h -2 v -2 z"
         style="fill:#424242;fill-opacity:1;fill-rule:evenodd;stroke:none;stroke-width:1px;stroke-linecap:butt;stroke-linejoin:miter;stroke-opacity:1" />
    </g>
    <g
       transform="matrix(0.26458333,0,0,0.26458333,-38.629171,40.787472)"
       id="titlebutton-close-hover"
       inkscape:label="#g5732">
      <rect
         ry="1.6668508"
         y="792.36218"
         x="192.00002"
         height="20.000006"
         width="20.000006"
         id="rect5292"
         style="opacity:1;fill:#e04343;fill-opacity:1;stroke:none;stroke-width:1;stroke-miterlimit:4;stroke-dasharray:none;stroke-dashoffset:0;stroke-opacity:1" />
      <path
         inkscape:connector-curvature="0"
         id="path6145"
         d="m 198,798.36208 v 1.33333 l 2.66667,2.66667 L 198,805.02875 v 1.33333 h 1.33333 L 202,803.69541 l 2.66667,2.66667 H 206 v -1.33333 L 203.33333,802.36208 206,799.69541 v -1.33333 h -1.33333 L 202,801.02875 l -2.66667,-2.66667 z"
         style="fill:#ffffff;fill-opacity:1;stroke:none" />
    </g>
    <g
       transform="matrix(0.26458333,0,0,0.26458333,-37.570837,40.787472)"
       id="titlebutton-minimize-hover"
       inkscape:label="#g5713">
      <rect
         ry="1.6668508"
         y="792.36218"
         x="144.00002"
         height="20.000006"
         width="20.000006"
         id="rect6163"
         style="opacity:1;fill:#3399ff;fill-opacity:1;stroke:none;stroke-width:1;stroke-miterlimit:4;stroke-dasharray:none;stroke-dashoffset:0;stroke-opacity:1" />
      <rect
         style="opacity:1;fill:#ffffff;fill-opacity:1;stroke:none;stroke-width:1;stroke-miterlimit:4;stroke-dasharray:none;stroke-dashoffset:0;stroke-opacity:1"
         id="rect6149"
         width="8.0000019"
         height="2.0000005"
         x="150.00002"
         y="804.36218" />
    </g>
    <g
       transform="matrix(0.26458333,0,0,0.26458333,-38.100004,40.787472)"
       id="titlebutton-maximize-hover"
       inkscape:label="#g5725">
      <rect
         style="opacity:1;fill:#3399ff;fill-opacity:1;stroke:none;stroke-width:1;stroke-miterlimit:4;stroke-dasharray:none;stroke-dashoffset:0;stroke-opacity:1"
         id="rect6161"
         width="20.000006"
         height="20.000006"
         x="168.00002"
         y="792.36218"
         ry="1.6668508" />
      <path
         style="fill:#ffffff;fill-opacity:1;fill-rule:evenodd;stroke:none;stroke-width:1px;stroke-linecap:butt;stroke-linejoin:miter;stroke-opacity:1"
         d="m 175.99999,798.36208 2,2 h 2 v 2 l 2.00001,2 v -6 z m -2,2 v 6 h 6 l -2,-2 h -2 v -2 z"
         id="path6153"
         inkscape:connector-curvature="0" />
    </g>
    <g
       transform="matrix(0.26458333,0,0,0.26458333,-42.33334,43.433307)"
       id="titlebutton-close-backdrop"
       inkscape:label="#g5719">
      <rect
         ry="1.6668508"
         y="760.36218"
         x="272.00006"
         height="20.000006"
         width="20.000006"
         id="rect7134"
         style="opacity:1;fill:#000000;fill-opacity:0.18823529;stroke:none;stroke-width:1;stroke-miterlimit:4;stroke-dasharray:none;stroke-dashoffset:0;stroke-opacity:1" />
      <path
         inkscape:connector-curvature="0"
         id="path6167"
         d="m 278.00003,766.36206 v 1.33334 l 2.66667,2.66667 -2.66667,2.66667 v 1.33333 h 1.33333 l 2.66667,-2.66667 2.66667,2.66667 h 1.33333 v -1.33333 l -2.66667,-2.66667 2.66667,-2.66667 v -1.33334 h -1.33333 l -2.66667,2.66668 -2.66667,-2.66668 z"
         style="fill:#ffffff;fill-opacity:1;stroke:none" />
    </g>
    <g
       transform="matrix(0.26458333,0,0,0.26458333,-41.275006,43.433307)"
       id="titlebutton-minimize-backdrop"
       inkscape:label="#g6158">
      <rect
         style="opacity:1;fill:#ffffff;fill-opacity:0.19607843;stroke:none;stroke-width:1;stroke-miterlimit:4;stroke-dasharray:none;stroke-dashoffset:0;stroke-opacity:1"
         id="rect6169-4"
         width="10.000002"
         height="4.000001"
         x="229.00002"
         y="771.36218" />
      <rect
         style="opacity:1;fill:#757575;fill-opacity:1;stroke:none;stroke-width:1;stroke-miterlimit:4;stroke-dasharray:none;stroke-dashoffset:0;stroke-opacity:1"
         id="rect6171-3"
         width="8.0000019"
         height="2.0000005"
         x="230.00002"
         y="772.36218" />
      <rect
         ry="1.6668508"
         y="760.36218"
         x="224.00002"
         height="20.000006"
         width="20.000006"
         id="rect7136"
         style="opacity:1;fill:#3399ff;fill-opacity:0;stroke:none;stroke-width:1;stroke-miterlimit:4;stroke-dasharray:none;stroke-dashoffset:0;stroke-opacity:1" />
    </g>
    <g
       transform="matrix(0.26458333,0,0,0.26458333,-41.804173,43.433307)"
       id="titlebutton-maximize-backdrop"
       inkscape:label="#g6163">
      <path
         style="fill:#ffffff;fill-opacity:0.19607843;fill-rule:evenodd;stroke:none;stroke-width:1px;stroke-linecap:butt;stroke-linejoin:miter;stroke-opacity:1"
         d="m 255.00001,765.36206 v 2.00001 h -2 v 8 h 8 v -2 h 2 v -8.00001 z m 2,4.00001 h 2 v 2 h -2 z"
         id="path6173"
         inkscape:connector-curvature="0" />
      <path
         style="fill:#757575;fill-opacity:1;fill-rule:evenodd;stroke:none;stroke-width:1px;stroke-linecap:butt;stroke-linejoin:miter;stroke-opacity:1"
         d="m 256.00001,766.36206 2,2.00001 h 2 v 2 l 2,2 v -6.00001 z m -2,2.00001 v 6 h 6 l -2,-2 h -2 v -2 z"
         id="path6175"
         inkscape:connector-curvature="0" />
      <rect
         style="opacity:1;fill:#3399ff;fill-opacity:0;stroke:none;stroke-width:1;stroke-miterlimit:4;stroke-dasharray:none;stroke-dashoffset:0;stroke-opacity:1"
         id="rect7138"
         width="20.000006"
         height="20.000006"
         x="248.00009"
         y="760.36218"
         ry="1.6668508" />
    </g>
    <g
       transform="matrix(0.26458333,0,0,0.26458333,-38.629171,43.433307)"
       id="titlebutton-close"
       inkscape:label="#g5699">
      <rect
         style="opacity:1;fill:#c75050;fill-opacity:1;stroke:none;stroke-width:1;stroke-miterlimit:4;stroke-dasharray:none;stroke-dashoffset:0;stroke-opacity:1"
         id="rect7456"
         width="20.000006"
         height="20.000006"
         x="192.00002"
         y="760.36218"
         ry="1.6668508" />
      <path
         style="fill:#ffffff;fill-opacity:1;stroke:none"
         d="m 198,766.36208 v 1.33333 l 2.66667,2.66667 L 198,773.02875 v 1.33333 h 1.33333 L 202,771.69541 l 2.66667,2.66667 H 206 v -1.33333 L 203.33333,770.36208 206,767.69541 v -1.33333 h -1.33333 L 202,769.02875 l -2.66667,-2.66667 z"
         id="path7458"
         inkscape:connector-curvature="0" />
    </g>
  </g>
</svg>
