/* XPM */
static char * bottom_active_xpm[] = {
"24 6 3 1",
" 	c None",
".	c #D6D6D6",
"+	c #6A6A6A",
"........................",
"........................",
"........................",
"........................",
"........................",
"++++++++++++++++++++++++"};
