/* XPM */
static char * bottom_active_xpm[] = {
"24 6 4 1",
" 	c None",
".	c #C7C7C7",
"+	c #D6D6D6",
"@	c #6A6A6A",
"........................",
"++++++++++++++++++++++++",
"++++++++++++++++++++++++",
"++++++++++++++++++++++++",
"++++++++++++++++++++++++",
"@@@@@@@@@@@@@@@@@@@@@@@@"};
