/* XPM */
static char * bottom_left_inactive_xpm[] = {
"6 6 4 1",
" 	c None",
".	c #6A6A6A",
"+	c #D6D6D6",
"@	c #C7C7C7",
".++++@",
".+++++",
".+++++",
".+++++",
".+++++",
"......"};
