/* XPM */
static char * close_pressed_xpm[] = {
"26 26 14 1",
" 	c None",
".	c #6A6A6A",
"+	c #F3F3F3",
"@	c #E0E0E0",
"#	c #D9A5A5",
"$	c #D36464",
"%	c #D35F5F",
"&	c #D9A6A6",
"*	c #D36565",
"=	c #FFFFFF",
"-	c #EAB4B4",
";	c #E9AFAF",
">	c #E8AAAA",
",	c #DAA7A7",
"..........................",
"++++++++++++++++++++++++++",
"@@@@@@@@@@@@@@@@@@@@@@@@@@",
"@@@#$%%%%%%%%%%%%%%%%$&@@@",
"@@@$%%%%%%%%%%%%%%%%%%*@@@",
"@@@%%%%%%%%%%%%%%%%%%%%@@@",
"@@@%%%%%%%%%%%%%%%%%%%%@@@",
"@@@%%%%%%%%%%%%%%%%%%%%@@@",
"@@@%%%%%%%%%%%%%%%%%%%%@@@",
"@@@%%%%%%=-%%%%;=%%%%%%@@@",
"@@@%%%%%%>=-%%;=;%%%%%%@@@",
"@@@%%%%%%%;=;;=;%%%%%%%@@@",
"@@@%%%%%%%%>==;%%%%%%%%@@@",
"@@@%%%%%%%%;==-%%%%%%%%@@@",
"@@@%%%%%%%;=;>=-%%%%%%%@@@",
"@@@%%%%%%;=;%%>=-%%%%%%@@@",
"@@@%%%%%%=;%%%%>=%%%%%%@@@",
"@@@%%%%%%%%%%%%%%%%%%%%@@@",
"@@@%%%%%%%%%%%%%%%%%%%%@@@",
"@@@%%%%%%%%%%%%%%%%%%%%@@@",
"@@@%%%%%%%%%%%%%%%%%%%%@@@",
"@@@$%%%%%%%%%%%%%%%%%%*@@@",
"@@@&*%%%%%%%%%%%%%%%%*,@@@",
"@@@@@@@@@@@@@@@@@@@@@@@@@@",
"@@@@@@@@@@@@@@@@@@@@@@@@@@",
"@@@@@@@@@@@@@@@@@@@@@@@@@@"};
