/* XPM */
static char * close_prelight_xpm[] = {
"26 26 18 1",
" 	c None",
".	c #6A6A6A",
"+	c #F3F3F3",
"@	c #E0E0E0",
"#	c #D9A5A5",
"$	c #D36464",
"%	c #D35F5F",
"&	c #D9A6A6",
"*	c #D36565",
"=	c #FFFFFF",
"-	c #F6DFDF",
";	c #D66A6A",
">	c #D56868",
",	c #F5DCDC",
"'	c #F5DBDB",
")	c #D56666",
"!	c #F4D8D8",
"~	c #DAA7A7",
"..........................",
"++++++++++++++++++++++++++",
"@@@@@@@@@@@@@@@@@@@@@@@@@@",
"@@@#$%%%%%%%%%%%%%%%%$&@@@",
"@@@$%%%%%%%%%%%%%%%%%%*@@@",
"@@@%%%%%%%%%%%%%%%%%%%%@@@",
"@@@%%%%%%%%%%%%%%%%%%%%@@@",
"@@@%%%%%%%%%%%%%%%%%%%%@@@",
"@@@%%%%%%%%%%%%%%%%%%%%@@@",
"@@@%%%%%%=-;%%>,=%%%%%%@@@",
"@@@%%%%%%'='>>'='%%%%%%@@@",
"@@@%%%%%%>'=''='>%%%%%%@@@",
"@@@%%%%%%%)!=='>%%%%%%%@@@",
"@@@%%%%%%%>,==-;%%%%%%%@@@",
"@@@%%%%%%>'=''='>%%%%%%@@@",
"@@@%%%%%%'='>>'='%%%%%%@@@",
"@@@%%%%%%='>%%)!=%%%%%%@@@",
"@@@%%%%%%%%%%%%%%%%%%%%@@@",
"@@@%%%%%%%%%%%%%%%%%%%%@@@",
"@@@%%%%%%%%%%%%%%%%%%%%@@@",
"@@@%%%%%%%%%%%%%%%%%%%%@@@",
"@@@$%%%%%%%%%%%%%%%%%%*@@@",
"@@@&*%%%%%%%%%%%%%%%%*~@@@",
"@@@@@@@@@@@@@@@@@@@@@@@@@@",
"@@@@@@@@@@@@@@@@@@@@@@@@@@",
"@@@@@@@@@@@@@@@@@@@@@@@@@@"};
