/* XPM */
static char * close_inactive_xpm[] = {
"26 26 15 1",
" 	c None",
".	c #6A6A6A",
"+	c #F3F3F3",
"@	c #E0E0E0",
"#	c #E6E6E6",
"$	c #E3E3E3",
"%	c #757575",
"&	c #8C8C8C",
"*	c #DEDEDE",
"=	c #DFDFDF",
"-	c #8D8D8D",
";	c #8E8E8E",
">	c #E2E2E2",
",	c #E1E1E1",
"'	c #919191",
"..........................",
"++++++++++++++++++++++++++",
"@@@@@@@@@@@@@@@@@@@@@@@@@@",
"@@@@@@@@@@@@@@@@@@@@@@@@@@",
"@@@@@@@@@@@@@@@@@@@@@@@@@@",
"@@@@@@@@@@@@@@@@@@@@@@@@@@",
"@@@@@@@@@@@@@@@@@@@@@@@@@@",
"@@@@@@@@@@@@@@@@@@@@@@@@@@",
"@@@@@@@@###$@@$###@@@@@@@@",
"@@@@@@@@#%&*$$=-%#@@@@@@@@",
"@@@@@@@@#;%;==;%;#@@@@@@@@",
"@@@@@@@@>=;%;;%;=$@@@@@@@@",
"@@@@@@@@@>,'%%;=$@@@@@@@@@",
"@@@@@@@@@$=-%%&*$@@@@@@@@@",
"@@@@@@@@$=;%;;%;=$@@@@@@@@",
"@@@@@@@@#;%;==;%;#@@@@@@@@",
"@@@@@@@@#%;=$>,'%#@@@@@@@@",
"@@@@@@@@###$@@>###@@@@@@@@",
"@@@@@@@@@@@@@@@@@@@@@@@@@@",
"@@@@@@@@@@@@@@@@@@@@@@@@@@",
"@@@@@@@@@@@@@@@@@@@@@@@@@@",
"@@@@@@@@@@@@@@@@@@@@@@@@@@",
"@@@@@@@@@@@@@@@@@@@@@@@@@@",
"@@@@@@@@@@@@@@@@@@@@@@@@@@",
"@@@@@@@@@@@@@@@@@@@@@@@@@@",
"@@@@@@@@@@@@@@@@@@@@@@@@@@"};
