/* XPM */
static char * close_active_xpm[] = {
"26 26 14 1",
" 	c None",
".	c #6A6A6A",
"+	c #F3F3F3",
"@	c #E0E0E0",
"#	c #E6E6E6",
"$	c #E3E3E3",
"%	c #424242",
"&	c #626262",
"*	c #DADADA",
"=	c #DDDDDD",
"-	c #666666",
";	c #E2E2E2",
">	c #DFDFDF",
",	c #696969",
"..........................",
"++++++++++++++++++++++++++",
"@@@@@@@@@@@@@@@@@@@@@@@@@@",
"@@@@@@@@@@@@@@@@@@@@@@@@@@",
"@@@@@@@@@@@@@@@@@@@@@@@@@@",
"@@@@@@@@@@@@@@@@@@@@@@@@@@",
"@@@@@@@@@@@@@@@@@@@@@@@@@@",
"@@@@@@@@@@@@@@@@@@@@@@@@@@",
"@@@@@@@@###$@@$###@@@@@@@@",
"@@@@@@@@#%&*$$=-%#@@@@@@@@",
"@@@@@@@@#-%-==-%-#@@@@@@@@",
"@@@@@@@@;=-%--%-=$@@@@@@@@",
"@@@@@@@@@;>,%%-=$@@@@@@@@@",
"@@@@@@@@@$=-%%&*$@@@@@@@@@",
"@@@@@@@@$=-%--%-=$@@@@@@@@",
"@@@@@@@@#-%-==-%-#@@@@@@@@",
"@@@@@@@@#%-=$;>,%#@@@@@@@@",
"@@@@@@@@###$@@;###@@@@@@@@",
"@@@@@@@@@@@@@@@@@@@@@@@@@@",
"@@@@@@@@@@@@@@@@@@@@@@@@@@",
"@@@@@@@@@@@@@@@@@@@@@@@@@@",
"@@@@@@@@@@@@@@@@@@@@@@@@@@",
"@@@@@@@@@@@@@@@@@@@@@@@@@@",
"@@@@@@@@@@@@@@@@@@@@@@@@@@",
"@@@@@@@@@@@@@@@@@@@@@@@@@@",
"@@@@@@@@@@@@@@@@@@@@@@@@@@"};
