/* XPM */
static char * close_active_xpm[] = {
"26 26 11 1",
" 	c None",
".	c #6A6A6A",
"+	c #F3F3F3",
"@	c #E0E0E0",
"#	c #ECECEC",
"$	c #E6E6E6",
"%	c #757575",
"&	c #ACACAC",
"*	c #B0B0B0",
"=	c #B4B4B4",
"-	c #E5E5E5",
"..........................",
"++++++++++++++++++++++++++",
"@@@@@@@@@@@@@@@@@@@@@@@@@@",
"@@@@@@@@@@@@@@@@@@@@@@@@@@",
"@@@@@@@@@@@@@@@@@@@@@@@@@@",
"@@@@@@@@@@@@@@@@@@@@@@@@@@",
"@@@@@@@@@@@@@@@@@@@@@@@@@@",
"@@@@@@@@@@@@@@@@@@@@@@@@@@",
"@@@@@@@@##$@@@@$##@@@@@@@@",
"@@@@@@@@#%&$@@$*%#@@@@@@@@",
"@@@@@@@@$=%&$$*%*$@@@@@@@@",
"@@@@@@@@@-*%**%*$@@@@@@@@@",
"@@@@@@@@@@-=%%*$@@@@@@@@@@",
"@@@@@@@@@@$*%%&$@@@@@@@@@@",
"@@@@@@@@@$*%*=%&$@@@@@@@@@",
"@@@@@@@@$*%*$-=%&$@@@@@@@@",
"@@@@@@@@#%*$@@-=%#@@@@@@@@",
"@@@@@@@@##$@@@@-##@@@@@@@@",
"@@@@@@@@@@@@@@@@@@@@@@@@@@",
"@@@@@@@@@@@@@@@@@@@@@@@@@@",
"@@@@@@@@@@@@@@@@@@@@@@@@@@",
"@@@@@@@@@@@@@@@@@@@@@@@@@@",
"@@@@@@@@@@@@@@@@@@@@@@@@@@",
"@@@@@@@@@@@@@@@@@@@@@@@@@@",
"@@@@@@@@@@@@@@@@@@@@@@@@@@",
"@@@@@@@@@@@@@@@@@@@@@@@@@@"};
