/* XPM */
static char * hide_prelight_xpm[] = {
"26 26 11 1",
" 	c None",
".	c #6A6A6A",
"+	c #E5E5E5",
"@	c #D6D6D6",
"#	c #8DBAE8",
"$	c #3A9BFD",
"%	c #3399FF",
"&	c #8EBAE8",
"*	c #FFFFFF",
"=	c #8FBBE7",
"-	c #C7C7C7",
"..........................",
"++++++++++++++++++++++++++",
"@@@@@@@@@@@@@@@@@@@@@@@@@@",
"@@@#$%%%%%%%%%%%%%%%%$&@@@",
"@@@$%%%%%%%%%%%%%%%%%%$@@@",
"@@@%%%%%%%%%%%%%%%%%%%%@@@",
"@@@%%%%%%%%%%%%%%%%%%%%@@@",
"@@@%%%%%%%%%%%%%%%%%%%%@@@",
"@@@%%%%%%%%%%%%%%%%%%%%@@@",
"@@@%%%%%%%%%%%%%%%%%%%%@@@",
"@@@%%%%%%%%%%%%%%%%%%%%@@@",
"@@@%%%%%%%%%%%%%%%%%%%%@@@",
"@@@%%%%%%%%%%%%%%%%%%%%@@@",
"@@@%%%%%%%%%%%%%%%%%%%%@@@",
"@@@%%%%%%%%%%%%%%%%%%%%@@@",
"@@@%%%%%%********%%%%%%@@@",
"@@@%%%%%%********%%%%%%@@@",
"@@@%%%%%%%%%%%%%%%%%%%%@@@",
"@@@%%%%%%%%%%%%%%%%%%%%@@@",
"@@@%%%%%%%%%%%%%%%%%%%%@@@",
"@@@%%%%%%%%%%%%%%%%%%%%@@@",
"@@@$%%%%%%%%%%%%%%%%%%$@@@",
"@@@&$%%%%%%%%%%%%%%%%$=@@@",
"@@@@@@@@@@@@@@@@@@@@@@@@@@",
"@@@@@@@@@@@@@@@@@@@@@@@@@@",
"--------------------------"};
