/* XPM */
static char * left_active_xpm[] = {
"6 24 3 1",
" 	c None",
".	c #6A6A6A",
"+	c #D6D6D6",
".+++++",
".+++++",
".+++++",
".+++++",
".+++++",
".+++++",
".+++++",
".+++++",
".+++++",
".+++++",
".+++++",
".+++++",
".+++++",
".+++++",
".+++++",
".+++++",
".+++++",
".+++++",
".+++++",
".+++++",
".+++++",
".+++++",
".+++++",
".+++++"};
