/* XPM */
static char * maximize_pressed_xpm[] = {
"26 26 14 1",
" 	c None",
".	c #6A6A6A",
"+	c #F3F3F3",
"@	c #E0E0E0",
"#	c #92BFED",
"$	c #3A9CFD",
"%	c #3399FF",
"&	c #93C0ED",
"*	c #3B9CFD",
"=	c #92C9FF",
"-	c #FFFFFF",
";	c #A0CFFF",
">	c #99CCFF",
",	c #94C1ED",
"..........................",
"++++++++++++++++++++++++++",
"@@@@@@@@@@@@@@@@@@@@@@@@@@",
"@@@#$%%%%%%%%%%%%%%%%$&@@@",
"@@@$%%%%%%%%%%%%%%%%%%*@@@",
"@@@%%%%%%%%%%%%%%%%%%%%@@@",
"@@@%%%%%%%%%%%%%%%%%%%%@@@",
"@@@%%%%%%%%%%%%%%%%%%%%@@@",
"@@@%%%%%%%%%%%%%%%%%%%%@@@",
"@@@%%%%%%%%=-----%%%%%%@@@",
"@@@%%%%%%%%%=----%%%%%%@@@",
"@@@%%%%%%;%%%%%--%%%%%%@@@",
"@@@%%%%%%-;%%%%--%%%%%%@@@",
"@@@%%%%%%--%%%%=-%%%%%%@@@",
"@@@%%%%%%--%%%%%>%%%%%%@@@",
"@@@%%%%%%----;%%%%%%%%%@@@",
"@@@%%%%%%-----;%%%%%%%%@@@",
"@@@%%%%%%%%%%%%%%%%%%%%@@@",
"@@@%%%%%%%%%%%%%%%%%%%%@@@",
"@@@%%%%%%%%%%%%%%%%%%%%@@@",
"@@@%%%%%%%%%%%%%%%%%%%%@@@",
"@@@$%%%%%%%%%%%%%%%%%%*@@@",
"@@@&*%%%%%%%%%%%%%%%%*,@@@",
"@@@@@@@@@@@@@@@@@@@@@@@@@@",
"@@@@@@@@@@@@@@@@@@@@@@@@@@",
"@@@@@@@@@@@@@@@@@@@@@@@@@@"};
