/* XPM */
static char * maximize_inactive_xpm[] = {
"26 26 9 1",
" 	c None",
".	c #6A6A6A",
"+	c #F3F3F3",
"@	c #E0E0E0",
"#	c #E6E6E6",
"$	c #B1B1B1",
"%	c #757575",
"&	c #A9A9A9",
"*	c #ADADAD",
"..........................",
"++++++++++++++++++++++++++",
"@@@@@@@@@@@@@@@@@@@@@@@@@@",
"@@@@@@@@@@@@@@@@@@@@@@@@@@",
"@@@@@@@@@@@@@@@@@@@@@@@@@@",
"@@@@@@@@@@@@@@@@@@@@@@@@@@",
"@@@@@@@@@@@@@@@@@@@@@@@@@@",
"@@@@@@@@@@@@@@@@@@@@@@@@@@",
"@@@@@@@@@@########@@@@@@@@",
"@@@@@@@@@@#$%%%%%#@@@@@@@@",
"@@@@@@@@####$%%%%#@@@@@@@@",
"@@@@@@@@#&#####%%#@@@@@@@@",
"@@@@@@@@#%&#@@#%%#@@@@@@@@",
"@@@@@@@@#%%#@@#$%#@@@@@@@@",
"@@@@@@@@#%%#####*#@@@@@@@@",
"@@@@@@@@#%%%%&####@@@@@@@@",
"@@@@@@@@#%%%%%&#@@@@@@@@@@",
"@@@@@@@@########@@@@@@@@@@",
"@@@@@@@@@@@@@@@@@@@@@@@@@@",
"@@@@@@@@@@@@@@@@@@@@@@@@@@",
"@@@@@@@@@@@@@@@@@@@@@@@@@@",
"@@@@@@@@@@@@@@@@@@@@@@@@@@",
"@@@@@@@@@@@@@@@@@@@@@@@@@@",
"@@@@@@@@@@@@@@@@@@@@@@@@@@",
"@@@@@@@@@@@@@@@@@@@@@@@@@@",
"@@@@@@@@@@@@@@@@@@@@@@@@@@"};
