/* XPM */
static char * maximize_inactive_xpm[] = {
"26 26 8 1",
" 	c None",
".	c #6A6A6A",
"+	c #F3F3F3",
"@	c #E0E0E0",
"#	c #C1C1C1",
"$	c #9E9E9E",
"%	c #BCBCBC",
"&	c #BEBEBE",
"..........................",
"++++++++++++++++++++++++++",
"@@@@@@@@@@@@@@@@@@@@@@@@@@",
"@@@@@@@@@@@@@@@@@@@@@@@@@@",
"@@@@@@@@@@@@@@@@@@@@@@@@@@",
"@@@@@@@@@@@@@@@@@@@@@@@@@@",
"@@@@@@@@@@@@@@@@@@@@@@@@@@",
"@@@@@@@@@@@@@@@@@@@@@@@@@@",
"@@@@@@@@@@@@@@@@@@@@@@@@@@",
"@@@@@@@@@@@#$$$$$@@@@@@@@@",
"@@@@@@@@@@@@#$$$$@@@@@@@@@",
"@@@@@@@@@%@@@@@$$@@@@@@@@@",
"@@@@@@@@@$%@@@@$$@@@@@@@@@",
"@@@@@@@@@$$@@@@#$@@@@@@@@@",
"@@@@@@@@@$$@@@@@&@@@@@@@@@",
"@@@@@@@@@$$$$%@@@@@@@@@@@@",
"@@@@@@@@@$$$$$%@@@@@@@@@@@",
"@@@@@@@@@@@@@@@@@@@@@@@@@@",
"@@@@@@@@@@@@@@@@@@@@@@@@@@",
"@@@@@@@@@@@@@@@@@@@@@@@@@@",
"@@@@@@@@@@@@@@@@@@@@@@@@@@",
"@@@@@@@@@@@@@@@@@@@@@@@@@@",
"@@@@@@@@@@@@@@@@@@@@@@@@@@",
"@@@@@@@@@@@@@@@@@@@@@@@@@@",
"@@@@@@@@@@@@@@@@@@@@@@@@@@",
"@@@@@@@@@@@@@@@@@@@@@@@@@@"};
