/* XPM */
static char * right_active_xpm[] = {
"6 24 3 1",
" 	c None",
".	c #D6D6D6",
"+	c #6A6A6A",
".....+",
".....+",
".....+",
".....+",
".....+",
".....+",
".....+",
".....+",
".....+",
".....+",
".....+",
".....+",
".....+",
".....+",
".....+",
".....+",
".....+",
".....+",
".....+",
".....+",
".....+",
".....+",
".....+",
".....+"};
