/* XPM */
static char * top_left_inactive_xpm[] = {
"4 26 6 1",
" 	c None",
".	c #6A6A6A",
"+	c #828282",
"@	c #F3F3F3",
"#	c #E0E0E0",
"$	c #696A6A",
"  ..",
" +@@",
".@##",
"$###",
".###",
".###",
".###",
".###",
".###",
".###",
".###",
".###",
".###",
".###",
".###",
".###",
".###",
".###",
".###",
".###",
".###",
".###",
".###",
".###",
".###",
".###"};
