/* XPM */
static char * top_left_inactive_xpm[] = {
"4 26 5 1",
" 	c None",
".	c #6A6A6A",
"+	c #F3F3F3",
"@	c #E0E0E0",
"#	c #696A6A",
"....",
".+++",
".@@@",
"#@@@",
".@@@",
".@@@",
".@@@",
".@@@",
".@@@",
".@@@",
".@@@",
".@@@",
".@@@",
".@@@",
".@@@",
".@@@",
".@@@",
".@@@",
".@@@",
".@@@",
".@@@",
".@@@",
".@@@",
".@@@",
".@@@",
".@@@"};
