/* XPM */
static char * top_right_active_shaded_xpm[] = {
"6 26 5 1",
" 	c None",
".	c #6A6A6A",
"+	c #E5E5E5",
"@	c #D6D6D6",
"#	c #696A6A",
"......",
"+++++.",
"@@@@@.",
"@@@@@#",
"@@@@@.",
"@@@@@.",
"@@@@@.",
"@@@@@.",
"@@@@@.",
"@@@@@.",
"@@@@@.",
"@@@@@.",
"@@@@@.",
"@@@@@.",
"@@@@@.",
"@@@@@.",
"@@@@@.",
"@@@@@.",
"@@@@@.",
"@@@@@.",
"@@@@@.",
"@@@@@.",
"@@@@@.",
"@@@@@.",
"@@@@@.",
"@@@@@."};
